<?xml version="1.0" encoding="UTF-8"?>
<svg id="Layer_1" data-name="Layer 1" xmlns="http://www.w3.org/2000/svg" viewBox="0 0 512 512">
  <defs>
    <style>
      .cls-1, .cls-2 {
        stroke-width: 0px;
      }

      .cls-2 {
        fill: #fff;
      }
    </style>
  </defs>
  <g>
    <path class="cls-2" d="m132.01,463.6c-46.08-28.09-78.35-68.26-99.48-118.03-11.56-27.24-19.19-55.63-21.9-85.24-2.42-26.44,2.26-51.94,10.1-77.07,5.45-17.48,12.11-34.44,20.8-50.45,5.36-9.87,11.69-19.26,18.23-28.39,10.9-15.21,23.71-28.69,37.73-40.97,22.89-20.04,49.04-34.1,77.43-44.35,35.11-12.68,71.14-16.14,108.03-13.04,23.98,2.01,47.02,8.2,69.77,15.72,17.41,5.76,33.76,13.8,48.78,24.46,13.23,9.4,24.42,21.09,35.53,32.96,29.17,31.16,49.8,67.33,62.62,108.19,7.36,23.47,10.08,47.67,10.33,72.26.37,36.08-6.68,70.49-21.38,103.3-8.87,19.79-19.95,38.23-33.81,54.8-17.45,20.86-36.9,39.6-59.4,54.77-14.7,9.91-30.9,16.4-47.9,21.26-21.66,6.19-43.72,9.87-66.07,10.91-37.68,1.75-74.35-3.94-109.08-19.42-13.93-6.21-27.25-13.8-40.85-20.77.17-.3.35-.61.52-.91Z"/>
    <path class="cls-2" d="m140.28,444.6c-41.66-25.4-70.84-61.72-89.94-106.72-10.45-24.63-17.35-50.3-19.8-77.07-2.18-23.9,2.05-46.96,9.13-69.68,4.93-15.81,10.95-31.14,18.8-45.61,4.84-8.93,10.57-17.42,16.48-25.67,9.85-13.75,21.44-25.94,34.12-37.04,20.7-18.12,44.34-30.83,70.01-40.1,31.75-11.46,64.32-14.59,97.68-11.79,21.68,1.82,42.51,7.41,63.09,14.22,15.74,5.21,30.53,12.47,44.1,22.11,11.97,8.5,22.08,19.07,32.12,29.8,26.38,28.17,45.03,60.88,56.62,97.82,6.66,21.22,9.11,43.1,9.34,65.34.34,32.62-6.04,63.74-19.33,93.4-8.02,17.9-18.03,34.57-30.57,49.55-15.78,18.86-33.36,35.81-53.71,49.52-13.29,8.96-27.94,14.83-43.3,19.22-19.58,5.6-39.53,8.92-59.74,9.86-34.07,1.58-67.22-3.56-98.63-17.55-12.59-5.61-24.64-12.48-36.94-18.78.16-.27.31-.55.47-.82ZM371.25,71.06c-13.26-9.44-29.67-13.73-47.57-13.12-17.91.61-32.76,8.01-45.79,20.02-8.69,8.01-15.1,17.61-19.9,28.44-4.51,10.17-5.96,20.9-7.03,31.93-2.88,29.58-20.09,47.02-47.83,52.02-15.69,2.83-30.41-1.14-43.95-9.39-10.04-6.11-20.62-10.62-32.25-12.07-38.69-4.85-69.39,15.44-84.14,51.43-6.13,14.95-6.52,30.36-3.56,46.12,3.13,16.63,10.93,30.73,22.79,42.21,18.28,17.71,40.7,23.01,65.26,20.41,11.97-1.27,22.92-6,33.87-10.74,28.23-12.24,60.2-2.25,75.99,26.36,6.12,11.1,7.69,23.31,7.96,35.9.5,23.58,9.11,44.25,25.21,60.83,22.95,23.64,60.19,27.5,84.14,15.52,18.41-9.2,33.2-21.29,42.33-40.32,9.4-19.6,10.04-39.67,3.7-60-5.8-18.61-17.5-32.91-33.5-43.6-7.45-4.98-14.48-10.34-19.67-17.95-13.28-19.48-15.21-39.98-4.48-60.96,5.71-11.17,14.76-19.62,25.99-25.36,7.07-3.6,13.12-8.48,18.35-14.54,9.72-11.29,17.67-23.69,20.95-38.43,7.26-32.64-6.2-66.48-36.87-84.7Z"/>
  </g>
  <g>
    <path class="cls-2" d="m132.01,463.6c-46.08-28.09-78.35-68.26-99.48-118.03-11.56-27.24-19.19-55.63-21.9-85.24-2.42-26.44,2.26-51.94,10.1-77.07,5.45-17.48,12.11-34.44,20.8-50.45,5.36-9.87,11.69-19.26,18.23-28.39,10.9-15.21,23.71-28.69,37.73-40.97,22.89-20.04,49.04-34.1,77.43-44.35,35.11-12.68,71.14-16.14,108.03-13.04,23.98,2.01,47.02,8.2,69.77,15.72,17.41,5.76,33.76,13.8,48.78,24.46,13.23,9.4,24.42,21.09,35.53,32.96,29.17,31.16,49.8,67.33,62.62,108.19,7.36,23.47,10.08,47.67,10.33,72.26.37,36.08-6.68,70.49-21.38,103.3-8.87,19.79-19.95,38.23-33.81,54.8-17.45,20.86-36.9,39.6-59.4,54.77-14.7,9.91-30.9,16.4-47.9,21.26-21.66,6.19-43.72,9.87-66.07,10.91-37.68,1.75-74.35-3.94-109.08-19.42-13.93-6.21-27.25-13.8-40.85-20.77.17-.3.35-.61.52-.91Z"/>
    <path class="cls-1" d="m140.28,444.6c-41.66-25.4-70.84-61.72-89.94-106.72-10.45-24.63-17.35-50.3-19.8-77.07-2.18-23.9,2.05-46.96,9.13-69.68,4.93-15.81,10.95-31.14,18.8-45.61,4.84-8.93,10.57-17.42,16.48-25.67,9.85-13.75,21.44-25.94,34.12-37.04,20.7-18.12,44.34-30.83,70.01-40.1,31.75-11.46,64.32-14.59,97.68-11.79,21.68,1.82,42.51,7.41,63.09,14.22,15.74,5.21,30.53,12.47,44.1,22.11,11.97,8.5,22.08,19.07,32.12,29.8,26.38,28.17,45.03,60.88,56.62,97.82,6.66,21.22,9.11,43.1,9.34,65.34.34,32.62-6.04,63.74-19.33,93.4-8.02,17.9-18.03,34.57-30.57,49.55-15.78,18.86-33.36,35.81-53.71,49.52-13.29,8.96-27.94,14.83-43.3,19.22-19.58,5.6-39.53,8.92-59.74,9.86-34.07,1.58-67.22-3.56-98.63-17.55-12.59-5.61-24.64-12.48-36.94-18.78.16-.27.31-.55.47-.82ZM371.25,71.06c-13.26-9.44-29.67-13.73-47.57-13.12-17.91.61-32.76,8.01-45.79,20.02-8.69,8.01-15.1,17.61-19.9,28.44-4.51,10.17-5.96,20.9-7.03,31.93-2.88,29.58-20.09,47.02-47.83,52.02-15.69,2.83-30.41-1.14-43.95-9.39-10.04-6.11-20.62-10.62-32.25-12.07-38.69-4.85-69.39,15.44-84.14,51.43-6.13,14.95-6.52,30.36-3.56,46.12,3.13,16.63,10.93,30.73,22.79,42.21,18.28,17.71,40.7,23.01,65.26,20.41,11.97-1.27,22.92-6,33.87-10.74,28.23-12.24,60.2-2.25,75.99,26.36,6.12,11.1,7.69,23.31,7.96,35.9.5,23.58,9.11,44.25,25.21,60.83,22.95,23.64,60.19,27.5,84.14,15.52,18.41-9.2,33.2-21.29,42.33-40.32,9.4-19.6,10.04-39.67,3.7-60-5.8-18.61-17.5-32.91-33.5-43.6-7.45-4.98-14.48-10.34-19.67-17.95-13.28-19.48-15.21-39.98-4.48-60.96,5.71-11.17,14.76-19.62,25.99-25.36,7.07-3.6,13.12-8.48,18.35-14.54,9.72-11.29,17.67-23.69,20.95-38.43,7.26-32.64-6.2-66.48-36.87-84.7Z"/>
  </g>
</svg>